<svg id="Layer_1" data-name="Layer 1" xmlns="http://www.w3.org/2000/svg" viewBox="0 0 250 100"><defs><style>.cls-1{fill:#000003;fill-rule:evenodd;}.cls-2{font-size:16.42px;font-family:SegoeUI, Segoe UI;}.cls-3{letter-spacing:-0.1em;}</style></defs><title>Artboard 1</title><path class="cls-1" d="M8.34,38.63h6.82V31a2.94,2.94,0,0,1,.41-1.87,2.45,2.45,0,0,1,1.74-.44h3.78a4.7,4.7,0,0,1,.68,0,8.19,8.19,0,0,1,2.17-5.19,5.11,5.11,0,0,1,.48-.45q-.6-.06-1.26-.06H15.31q-7,0-7,7v8.61Zm36.68,0H38.21V31a2.94,2.94,0,0,0-.41-1.87,2.45,2.45,0,0,0-1.74-.44H32.28a2.62,2.62,0,0,0-1.78.44A2.73,2.73,0,0,0,30.06,31V65.9q0,7.09-6.9,7.1H15.31q-7,0-7-7.1V57.45h6.82V65a3,3,0,0,0,.41,1.88,2.45,2.45,0,0,0,1.74.44h3.78a2.62,2.62,0,0,0,1.78-.44A2.8,2.8,0,0,0,23.31,65V30q0-7,6.89-7h7.86q7,0,7,7v8.61ZM31.59,67.3a8.26,8.26,0,0,1-2.15,5.16c-.16.17-.33.32-.5.47A10.19,10.19,0,0,0,30.2,73h2.86l3.84-1.61L36.22,73h1.84q7,0,7-7.1V57.45H38.21V65a3,3,0,0,1-.41,1.88,2.45,2.45,0,0,1-1.74.44H32.28C32,67.34,31.8,67.32,31.59,67.3Z"/><path class="cls-1" d="M61.87,65.8V36a2.39,2.39,0,0,0-.4-1.66A2.27,2.27,0,0,0,59.9,34H56.1a2.15,2.15,0,0,0-1.54.39A2.61,2.61,0,0,0,54.2,36V65.8a2.61,2.61,0,0,0,.36,1.66,2.15,2.15,0,0,0,1.54.39h3.8a2.27,2.27,0,0,0,1.57-.39,2.39,2.39,0,0,0,.4-1.66Zm-7.48-37h7.28q6.1,0,6.1,6.21V66.79q0,6.21-6.1,6.21H54.39q-6.16,0-6.16-6.21V35Q48.23,28.83,54.39,28.83Z"/><path class="cls-1" d="M88.5,34H76.57V48.52H86v5H76.57V73h-6V33.91a4.92,4.92,0,0,1,4.72-5.08H88.5Z"/><polygon class="cls-1" points="111 28.83 111 33.98 104.11 33.98 104.11 73 98.21 73 98.21 33.98 91.33 33.98 91.33 28.83 111 28.83"/><text class="cls-2" transform="translate(122.56 45.75) scale(0.94 1)">Think <tspan class="cls-3" x="43.83" y="0">T</tspan><tspan x="50.83" y="0">ogether! </tspan><tspan x="0" y="19.71">Design! Develop!</tspan></text></svg>